<?xml version="1.0" encoding="utf-8"?>
<!-- Generated by IcoMoon.io -->
<!DOCTYPE svg PUBLIC "-//W3C//DTD SVG 1.1//EN" "http://www.w3.org/Graphics/SVG/1.1/DTD/svg11.dtd">
<svg version="1.1" xmlns="http://www.w3.org/2000/svg" xmlns:xlink="http://www.w3.org/1999/xlink" width="32" height="32" viewBox="0 0 32 32">
<path d="M12.431 25.664c-6.855 0-12.431-5.594-12.431-12.47s5.576-12.469 12.431-12.469c6.854 0 12.43 5.594 12.43 12.469s-5.577 12.47-12.43 12.47zM12.431 3.725c-5.201 0-9.431 4.248-9.431 9.469s4.23 9.469 9.431 9.469c5.2 0 9.43-4.248 9.43-9.469s-4.231-9.469-9.43-9.469zM30.5 31.275c-0.385 0-0.77-0.147-1.062-0.441l-9.516-9.55c-0.585-0.587-0.583-1.537 0.004-2.121 0.586-0.584 1.537-0.583 2.121 0.004l9.516 9.55c0.585 0.587 0.583 1.537-0.004 2.121-0.293 0.291-0.676 0.437-1.059 0.437z"></path>
</svg>
